<svg
  width="32"
  height="32"
  viewBox="0 0 32 32"
  fill="none"
  xmlns="http://www.w3.org/2000/svg"
>
  <defs>
    <filter id="glow" x="-50%" y="-50%" width="200%" height="200%">
      <feGaussianBlur stdDeviation="1" result="blur" />
      <feComposite in="SourceGraphic" in2="blur" operator="over" />
    </filter>
    <linearGradient id="handGradient" x1="0" y1="0" x2="1" y2="1">
      <stop offset="0%" style="stop-color: #41b883" />
      <stop offset="100%" style="stop-color: #35495e" />
    </linearGradient>
  </defs>

  <g transform="translate(4, 4)" filter="url(#glow)">
    <path
      d="M17.318 11.75c0 3.037-3.515 5.466-6 5.466s-7.5-3.429-7.5-6.466c0-1.935.233-1.98 2.5-2.5c.47-.108.208-3.775 1-4c1.5-.426 2.881-1.326 3.5-1.5c1 .5 2.204 1.06 2.5 1c1.665-.333 1 2.5 3 2c1.419.878 1 4.086 1 6"
      fill="url(#handGradient)"
    />
    <path
      d="M7.183 3.72a1.875 1.875 0 0 1 3.645-.448a1.875 1.875 0 0 1 2.849 1.603v.21q.235-.084.5-.085h.375c1.035 0 1.875.84 1.875 1.875v4.56l.004.065c0 2.136-.806 3.774-2.043 4.874C13.16 17.465 11.538 18 9.931 18c-3.264 0-5.394-2.187-6.923-4.733a47 47 0 0 1-.978-1.559C.898 9.842 2.269 7.503 4.427 7.5V5.375A1.875 1.875 0 0 1 7.183 3.72m-.006 1.655a.875.875 0 1 0-1.75 0V10a.5.5 0 0 1-1 0V8.5c-1.403.003-2.257 1.51-1.542 2.69c.357.59.697 1.135.962 1.533l.006.01l.007.01C5.33 15.193 7.199 17 9.93 17c1.394 0 2.771-.465 3.794-1.374c1.001-.89 1.69-2.23 1.707-4.062l-.004-.064V6.875A.875.875 0 0 0 14.552 6h-.375a.5.5 0 0 0-.5.5v1a.5.5 0 1 1-1 0V4.875a.875.875 0 1 0-1.75 0V7a.5.5 0 1 1-1 0V3.875a.875.875 0 1 0-1.75 0V7.5a.5.5 0 0 1-1 0z"
      fill="#35495e"
    />
  </g>
</svg> 