  <svg
    width="396"
    height="341"
    viewBox="-50 -50 396 341"
    fill="none"
    xmlns="http://www.w3.org/2000/svg"
  >
    <defs>
      <linearGradient
        id="vueGradient"
        gradientUnits="userSpaceOnUse"
        x1="0"
        y1="0"
        x2="256"
        y2="0"
      >
        <stop
          offset="0%"
          style="stop-color: #41b883"
        >
          <animate
            attributeName="offset"
            values="-0.5;0.5;-0.5"
            dur="3s"
            repeatCount="indefinite"
          />
        </stop>
        <stop
          offset="50%"
          style="stop-color: #35495e"
        >
          <animate
            attributeName="offset"
            values="0;1;0"
            dur="3s"
            repeatCount="indefinite"
          />
        </stop>
        <stop
          offset="100%"
          style="stop-color: #41b883"
        >
          <animate
            attributeName="offset"
            values="0.5;1.5;0.5"
            dur="3s"
            repeatCount="indefinite"
          />
        </stop>
      </linearGradient>

      <filter
        id="shadow"
        x="-50%"
        y="-50%"
        width="200%"
        height="200%"
      >
        <feDropShadow
          dx="0"
          dy="8"
          stdDeviation="12"
          flood-color="#35495E"
          flood-opacity="0.4"
        />
      </filter>
    </defs>

    <g opacity="0.5">
      <path
        d="M157.44 0L128 51.2L97.92 0H0L128 220.8L256 0H157.44Z"
        fill="#41B883"
      />
      <path
        d="M157.44 0L128 51.2L97.92 0H50.56L128 132.48L204.8 0H157.44Z"
        fill="#35495E"
      />
    </g>

    <g
      transform="translate(40, 20)"
      filter="url(#shadow)"
    >
      <path
        d="M157.44 0L128 51.2L97.92 0H0L128 220.8L256 0H157.44Z"
        fill="#41B883"
        stroke="url(#vueGradient)"
        stroke-width="2"
      />
      <path
        d="M157.44 0L128 51.2L97.92 0H50.56L128 132.48L204.8 0H157.44Z"
        fill="#35495E"
        stroke="url(#vueGradient)"
        stroke-width="2"
      />
    </g>

    <g transform="translate(167, 77) scale(3) rotate(45)">
      <g
        stroke="black"
        stroke-width="1"
      >
        <g fill="rgba(0,0,0,0.2)">
          <path
            d="M3.25 4A.75.75 0 0 1 4 3.25h4a.75.75 0 0 1 .53 1.28L7.06 6l5.47 5.47a.75.75 0 1 1-1.06 1.06L6 7.06L4.53 8.53A.75.75 0 0 1 3.25 8z"
          />
          <path
            d="M3.25 20c0 .414.336.75.75.75h4a.75.75 0 0 0 .53-1.28L7.06 18l5.47-5.47a.75.75 0 1 0-1.06-1.06L6 16.94l-1.47-1.47a.75.75 0 0 0-1.28.53z"
          />
          <path
            d="M20.75 4a.75.75 0 0 0-.75-.75h-4a.75.75 0 0 0-.53 1.28L16.94 6l-5.47 5.47a.75.75 0 1 0 1.06 1.06L18 7.06l1.47 1.47A.75.75 0 0 0 20.75 8z"
          />
          <path
            d="M20.75 20a.75.75 0 0 1-.75.75h-4a.75.75 0 0 1-.53-1.28L16.94 18l-5.47-5.47a.75.75 0 1 1 1.06-1.06L18 16.94l1.47-1.47a.75.75 0 0 1 1.28.53z"
          />
        </g>
      </g>

      <g>
        <g fill="white">
          <path
            d="M3.25 4A.75.75 0 0 1 4 3.25h4a.75.75 0 0 1 .53 1.28L7.06 6l5.47 5.47a.75.75 0 1 1-1.06 1.06L6 7.06L4.53 8.53A.75.75 0 0 1 3.25 8z"
          />
          <path
            d="M3.25 20c0 .414.336.75.75.75h4a.75.75 0 0 0 .53-1.28L7.06 18l5.47-5.47a.75.75 0 1 0-1.06-1.06L6 16.94l-1.47-1.47a.75.75 0 0 0-1.28.53z"
          />
          <path
            d="M20.75 4a.75.75 0 0 0-.75-.75h-4a.75.75 0 0 0-.53 1.28L16.94 6l-5.47 5.47a.75.75 0 1 0 1.06 1.06L18 7.06l1.47 1.47A.75.75 0 0 0 20.75 8z"
          />
          <path
            d="M20.75 20a.75.75 0 0 1-.75.75h-4a.75.75 0 0 1-.53-1.28L16.94 18l-5.47-5.47a.75.75 0 1 1 1.06-1.06L18 16.94l1.47-1.47a.75.75 0 0 1 1.28.53z"
          />
        </g>
      </g>
    </g>
  </svg>